<mxfile host="app.diagrams.net" modified="2023-09-07T04:55:22.891Z" agent="Mozilla/5.0 (Macintosh; Intel Mac OS X 10_15_7) AppleWebKit/537.36 (KHTML, like Gecko) Chrome/116.0.0.0 Safari/537.36" etag="b3dEprcvkBaXzkNSiXXw" version="21.7.2" type="device">
  <diagram name="Page-1" id="2cc2dc42-3aac-f2a9-1cec-7a8b7cbee084">
    <mxGraphModel dx="1468" dy="1035" grid="1" gridSize="10" guides="1" tooltips="1" connect="1" arrows="1" fold="1" page="1" pageScale="1" pageWidth="1100" pageHeight="850" background="#ffffff" math="0" shadow="0">
      <root>
        <mxCell id="0" />
        <mxCell id="1" parent="0" />
        <mxCell id="7026571954dc6520-1" value="" style="strokeWidth=1;shadow=0;dashed=0;align=center;html=1;shape=mxgraph.mockup.containers.browserWindow;rSize=0;strokeColor=#666666;mainText=,;recursiveResize=0;rounded=0;labelBackgroundColor=none;fontFamily=Verdana;fontSize=12" parent="1" vertex="1">
          <mxGeometry y="15" width="1140" height="820" as="geometry" />
        </mxCell>
        <mxCell id="7026571954dc6520-2" value="Index" style="strokeWidth=1;shadow=0;dashed=0;align=center;html=1;shape=mxgraph.mockup.containers.anchor;fontSize=17;fontColor=#666666;align=left;" parent="7026571954dc6520-1" vertex="1">
          <mxGeometry x="60" y="12" width="110" height="26" as="geometry" />
        </mxCell>
        <mxCell id="7026571954dc6520-3" value="https://www.monashcalsync.com" style="strokeWidth=1;shadow=0;dashed=0;align=center;html=1;shape=mxgraph.mockup.containers.anchor;rSize=0;fontSize=17;fontColor=#666666;align=left;" parent="7026571954dc6520-1" vertex="1">
          <mxGeometry x="130" y="60" width="250" height="26" as="geometry" />
        </mxCell>
        <mxCell id="7026571954dc6520-4" value="MonashCalSync" style="text;html=1;points=[];align=left;verticalAlign=top;spacingTop=-4;fontSize=30;fontFamily=Verdana" parent="7026571954dc6520-1" vertex="1">
          <mxGeometry x="30" y="140" width="340" height="50" as="geometry" />
        </mxCell>
        <mxCell id="7026571954dc6520-10" value="Section 1" style="text;html=1;points=[];align=left;verticalAlign=top;spacingTop=-4;fontSize=15;fontFamily=Verdana" parent="7026571954dc6520-1" vertex="1">
          <mxGeometry x="800" y="140" width="170" height="30" as="geometry" />
        </mxCell>
        <mxCell id="7026571954dc6520-11" value="Some default text to fill some space, and&amp;nbsp;&lt;span&gt;something more so there is more text&lt;/span&gt;" style="text;html=1;points=[];align=left;verticalAlign=top;spacingTop=-4;fontSize=12;fontFamily=Verdana;whiteSpace=wrap;" parent="7026571954dc6520-1" vertex="1">
          <mxGeometry x="800" y="170" width="240" height="40" as="geometry" />
        </mxCell>
        <mxCell id="7026571954dc6520-14" value="Search" style="strokeWidth=1;shadow=0;dashed=0;align=center;html=1;shape=mxgraph.mockup.forms.searchBox;strokeColor=#999999;mainText=;strokeColor2=#008cff;fontColor=#666666;fontSize=17;align=left;spacingLeft=3;rounded=0;labelBackgroundColor=none;" parent="7026571954dc6520-1" vertex="1">
          <mxGeometry x="355" y="180" width="220" height="30" as="geometry" />
        </mxCell>
        <mxCell id="7026571954dc6520-18" value="Login" style="strokeWidth=1;shadow=0;dashed=0;align=center;html=1;shape=mxgraph.mockup.buttons.button;strokeColor=#666666;mainText=;buttonStyle=round;fontSize=17;fontStyle=0;fillColor=none;whiteSpace=wrap;rounded=0;labelBackgroundColor=none;" parent="7026571954dc6520-1" vertex="1">
          <mxGeometry x="30" y="220" width="190" height="30" as="geometry" />
        </mxCell>
        <mxCell id="7026571954dc6520-21" value="" style="verticalLabelPosition=bottom;shadow=0;dashed=0;align=center;html=1;verticalAlign=top;strokeWidth=1;shape=mxgraph.mockup.markup.line;strokeColor=#999999;rounded=0;labelBackgroundColor=none;fillColor=#ffffff;fontFamily=Verdana;fontSize=12;fontColor=#000000;" parent="7026571954dc6520-1" vertex="1">
          <mxGeometry x="300" y="580" width="750" height="20" as="geometry" />
        </mxCell>
        <mxCell id="7026571954dc6520-31" value="Times you can meet" style="text;html=1;points=[];align=left;verticalAlign=top;spacingTop=-4;fontSize=15;fontFamily=Verdana" parent="7026571954dc6520-1" vertex="1">
          <mxGeometry x="280" y="610" width="170" height="30" as="geometry" />
        </mxCell>
        <mxCell id="H8qIDflxrQJZFZ6HQlEa-1" value="" style="verticalLabelPosition=bottom;shadow=0;dashed=0;align=center;html=1;verticalAlign=top;strokeWidth=1;shape=mxgraph.mockup.markup.line;strokeColor=#999999;rounded=0;labelBackgroundColor=none;fillColor=#ffffff;fontFamily=Verdana;fontSize=12;fontColor=#000000;rotation=-90;" vertex="1" parent="7026571954dc6520-1">
          <mxGeometry x="67.5" y="337.5" width="470" height="20" as="geometry" />
        </mxCell>
        <mxCell id="H8qIDflxrQJZFZ6HQlEa-3" value="Show times to meet before:" style="fillColor=none;strokeColor=none;html=1;fontSize=11;fontStyle=0;align=left;fontColor=#596780;fontStyle=1;fontSize=11" vertex="1" parent="7026571954dc6520-1">
          <mxGeometry x="20" y="280" width="240" height="20" as="geometry" />
        </mxCell>
        <mxCell id="H8qIDflxrQJZFZ6HQlEa-4" value="" style="rounded=1;arcSize=9;fillColor=#F7F8F9;align=left;spacingLeft=5;strokeColor=#DEE1E6;html=1;strokeWidth=2;fontColor=#596780;fontSize=12" vertex="1" parent="7026571954dc6520-1">
          <mxGeometry x="15" y="310" width="250" height="40" as="geometry" />
        </mxCell>
        <mxCell id="H8qIDflxrQJZFZ6HQlEa-5" value="Your unqiue code is ####" style="text;html=1;points=[];align=left;verticalAlign=top;spacingTop=-4;fontSize=30;fontFamily=Verdana" vertex="1" parent="7026571954dc6520-1">
          <mxGeometry x="315" y="120" width="425" height="50" as="geometry" />
        </mxCell>
        <mxCell id="H8qIDflxrQJZFZ6HQlEa-6" value="" style="strokeWidth=1;shadow=0;dashed=0;align=center;html=1;shape=mxgraph.mockup.forms.rrect;rSize=5;strokeColor=#999999;fillColor=#ffffff;" vertex="1" parent="7026571954dc6520-1">
          <mxGeometry x="315" y="250" width="795" height="300" as="geometry" />
        </mxCell>
        <mxCell id="H8qIDflxrQJZFZ6HQlEa-7" value="October 2014" style="strokeWidth=1;shadow=0;dashed=0;align=center;html=1;shape=mxgraph.mockup.forms.anchor;fontColor=#999999;" vertex="1" parent="H8qIDflxrQJZFZ6HQlEa-6">
          <mxGeometry x="149.0625" y="13.714285714285714" width="496.875" height="34.285714285714285" as="geometry" />
        </mxCell>
        <mxCell id="H8qIDflxrQJZFZ6HQlEa-8" value="&lt;" style="strokeWidth=1;shadow=0;dashed=0;align=center;html=1;shape=mxgraph.mockup.forms.rrect;rSize=4;strokeColor=#999999;fontColor=#008cff;fontSize=19;fontStyle=1;" vertex="1" parent="H8qIDflxrQJZFZ6HQlEa-6">
          <mxGeometry x="39.75" y="13.714285714285714" width="124.21875" height="34.285714285714285" as="geometry" />
        </mxCell>
        <mxCell id="H8qIDflxrQJZFZ6HQlEa-9" value="&gt;" style="strokeWidth=1;shadow=0;dashed=0;align=center;html=1;shape=mxgraph.mockup.forms.rrect;rSize=4;strokeColor=#999999;fontColor=#008cff;fontSize=19;fontStyle=1;" vertex="1" parent="H8qIDflxrQJZFZ6HQlEa-6">
          <mxGeometry x="631.03125" y="13.714285714285714" width="124.21875" height="34.285714285714285" as="geometry" />
        </mxCell>
        <mxCell id="H8qIDflxrQJZFZ6HQlEa-10" value="Mo" style="strokeWidth=1;shadow=0;dashed=0;align=center;html=1;shape=mxgraph.mockup.forms.anchor;fontColor=#999999;" vertex="1" parent="H8qIDflxrQJZFZ6HQlEa-6">
          <mxGeometry x="49.6875" y="48" width="99.375" height="34.285714285714285" as="geometry" />
        </mxCell>
        <mxCell id="H8qIDflxrQJZFZ6HQlEa-11" value="Tu" style="strokeWidth=1;shadow=0;dashed=0;align=center;html=1;shape=mxgraph.mockup.forms.anchor;fontColor=#999999;" vertex="1" parent="H8qIDflxrQJZFZ6HQlEa-6">
          <mxGeometry x="149.0625" y="48" width="99.375" height="34.285714285714285" as="geometry" />
        </mxCell>
        <mxCell id="H8qIDflxrQJZFZ6HQlEa-12" value="We" style="strokeWidth=1;shadow=0;dashed=0;align=center;html=1;shape=mxgraph.mockup.forms.anchor;fontColor=#999999;" vertex="1" parent="H8qIDflxrQJZFZ6HQlEa-6">
          <mxGeometry x="248.4375" y="48" width="99.375" height="34.285714285714285" as="geometry" />
        </mxCell>
        <mxCell id="H8qIDflxrQJZFZ6HQlEa-13" value="Th" style="strokeWidth=1;shadow=0;dashed=0;align=center;html=1;shape=mxgraph.mockup.forms.anchor;fontColor=#999999;" vertex="1" parent="H8qIDflxrQJZFZ6HQlEa-6">
          <mxGeometry x="347.8125" y="48" width="99.375" height="34.285714285714285" as="geometry" />
        </mxCell>
        <mxCell id="H8qIDflxrQJZFZ6HQlEa-14" value="Fr" style="strokeWidth=1;shadow=0;dashed=0;align=center;html=1;shape=mxgraph.mockup.forms.anchor;fontColor=#999999;" vertex="1" parent="H8qIDflxrQJZFZ6HQlEa-6">
          <mxGeometry x="447.1875" y="48" width="99.375" height="34.285714285714285" as="geometry" />
        </mxCell>
        <mxCell id="H8qIDflxrQJZFZ6HQlEa-15" value="Sa" style="strokeWidth=1;shadow=0;dashed=0;align=center;html=1;shape=mxgraph.mockup.forms.anchor;fontColor=#999999;" vertex="1" parent="H8qIDflxrQJZFZ6HQlEa-6">
          <mxGeometry x="546.5625" y="48" width="99.375" height="34.285714285714285" as="geometry" />
        </mxCell>
        <mxCell id="H8qIDflxrQJZFZ6HQlEa-16" value="Su" style="strokeWidth=1;shadow=0;dashed=0;align=center;html=1;shape=mxgraph.mockup.forms.anchor;fontColor=#999999;" vertex="1" parent="H8qIDflxrQJZFZ6HQlEa-6">
          <mxGeometry x="645.9375" y="48" width="99.375" height="34.285714285714285" as="geometry" />
        </mxCell>
        <mxCell id="H8qIDflxrQJZFZ6HQlEa-17" value="1" style="strokeWidth=1;shadow=0;dashed=0;align=center;html=1;shape=mxgraph.mockup.forms.rrect;rSize=0;strokeColor=#999999;fontColor=#999999;" vertex="1" parent="H8qIDflxrQJZFZ6HQlEa-6">
          <mxGeometry x="49.6875" y="82.28571428571428" width="99.375" height="34.285714285714285" as="geometry" />
        </mxCell>
        <mxCell id="H8qIDflxrQJZFZ6HQlEa-18" value="2" style="strokeWidth=1;shadow=0;dashed=0;align=center;html=1;shape=mxgraph.mockup.forms.rrect;rSize=0;strokeColor=#999999;fontColor=#999999;" vertex="1" parent="H8qIDflxrQJZFZ6HQlEa-6">
          <mxGeometry x="149.0625" y="82.28571428571428" width="99.375" height="34.285714285714285" as="geometry" />
        </mxCell>
        <mxCell id="H8qIDflxrQJZFZ6HQlEa-19" value="3" style="strokeWidth=1;shadow=0;dashed=0;align=center;html=1;shape=mxgraph.mockup.forms.rrect;rSize=0;strokeColor=#999999;fontColor=#999999;" vertex="1" parent="H8qIDflxrQJZFZ6HQlEa-6">
          <mxGeometry x="248.4375" y="82.28571428571428" width="99.375" height="34.285714285714285" as="geometry" />
        </mxCell>
        <mxCell id="H8qIDflxrQJZFZ6HQlEa-20" value="4" style="strokeWidth=1;shadow=0;dashed=0;align=center;html=1;shape=mxgraph.mockup.forms.rrect;rSize=0;strokeColor=#999999;fontColor=#999999;" vertex="1" parent="H8qIDflxrQJZFZ6HQlEa-6">
          <mxGeometry x="347.8125" y="82.28571428571428" width="99.375" height="34.285714285714285" as="geometry" />
        </mxCell>
        <mxCell id="H8qIDflxrQJZFZ6HQlEa-21" value="5" style="strokeWidth=1;shadow=0;dashed=0;align=center;html=1;shape=mxgraph.mockup.forms.rrect;rSize=0;strokeColor=#999999;fontColor=#999999;" vertex="1" parent="H8qIDflxrQJZFZ6HQlEa-6">
          <mxGeometry x="447.1875" y="82.28571428571428" width="99.375" height="34.285714285714285" as="geometry" />
        </mxCell>
        <mxCell id="H8qIDflxrQJZFZ6HQlEa-22" value="6" style="strokeWidth=1;shadow=0;dashed=0;align=center;html=1;shape=mxgraph.mockup.forms.rrect;rSize=0;strokeColor=#999999;fontColor=#999999;" vertex="1" parent="H8qIDflxrQJZFZ6HQlEa-6">
          <mxGeometry x="546.5625" y="82.28571428571428" width="99.375" height="34.285714285714285" as="geometry" />
        </mxCell>
        <mxCell id="H8qIDflxrQJZFZ6HQlEa-23" value="7" style="strokeWidth=1;shadow=0;dashed=0;align=center;html=1;shape=mxgraph.mockup.forms.rrect;rSize=0;strokeColor=#999999;fontColor=#999999;" vertex="1" parent="H8qIDflxrQJZFZ6HQlEa-6">
          <mxGeometry x="645.9375" y="82.28571428571428" width="99.375" height="34.285714285714285" as="geometry" />
        </mxCell>
        <mxCell id="H8qIDflxrQJZFZ6HQlEa-24" value="8" style="strokeWidth=1;shadow=0;dashed=0;align=center;html=1;shape=mxgraph.mockup.forms.rrect;rSize=0;strokeColor=#999999;fontColor=#999999;" vertex="1" parent="H8qIDflxrQJZFZ6HQlEa-6">
          <mxGeometry x="49.6875" y="116.57142857142857" width="99.375" height="34.285714285714285" as="geometry" />
        </mxCell>
        <mxCell id="H8qIDflxrQJZFZ6HQlEa-25" value="9" style="strokeWidth=1;shadow=0;dashed=0;align=center;html=1;shape=mxgraph.mockup.forms.rrect;rSize=0;strokeColor=#999999;fontColor=#999999;" vertex="1" parent="H8qIDflxrQJZFZ6HQlEa-6">
          <mxGeometry x="149.0625" y="116.57142857142857" width="99.375" height="34.285714285714285" as="geometry" />
        </mxCell>
        <mxCell id="H8qIDflxrQJZFZ6HQlEa-26" value="10" style="strokeWidth=1;shadow=0;dashed=0;align=center;html=1;shape=mxgraph.mockup.forms.rrect;rSize=0;strokeColor=#999999;fontColor=#999999;" vertex="1" parent="H8qIDflxrQJZFZ6HQlEa-6">
          <mxGeometry x="248.4375" y="116.57142857142857" width="99.375" height="34.285714285714285" as="geometry" />
        </mxCell>
        <mxCell id="H8qIDflxrQJZFZ6HQlEa-27" value="11" style="strokeWidth=1;shadow=0;dashed=0;align=center;html=1;shape=mxgraph.mockup.forms.rrect;rSize=0;strokeColor=#999999;fontColor=#999999;" vertex="1" parent="H8qIDflxrQJZFZ6HQlEa-6">
          <mxGeometry x="347.8125" y="116.57142857142857" width="99.375" height="34.285714285714285" as="geometry" />
        </mxCell>
        <mxCell id="H8qIDflxrQJZFZ6HQlEa-28" value="12" style="strokeWidth=1;shadow=0;dashed=0;align=center;html=1;shape=mxgraph.mockup.forms.rrect;rSize=0;strokeColor=#999999;fontColor=#999999;" vertex="1" parent="H8qIDflxrQJZFZ6HQlEa-6">
          <mxGeometry x="447.1875" y="116.57142857142857" width="99.375" height="34.285714285714285" as="geometry" />
        </mxCell>
        <mxCell id="H8qIDflxrQJZFZ6HQlEa-29" value="13" style="strokeWidth=1;shadow=0;dashed=0;align=center;html=1;shape=mxgraph.mockup.forms.rrect;rSize=0;strokeColor=#999999;fontColor=#999999;" vertex="1" parent="H8qIDflxrQJZFZ6HQlEa-6">
          <mxGeometry x="546.5625" y="116.57142857142857" width="99.375" height="34.285714285714285" as="geometry" />
        </mxCell>
        <mxCell id="H8qIDflxrQJZFZ6HQlEa-30" value="14" style="strokeWidth=1;shadow=0;dashed=0;align=center;html=1;shape=mxgraph.mockup.forms.rrect;rSize=0;strokeColor=#999999;fontColor=#999999;" vertex="1" parent="H8qIDflxrQJZFZ6HQlEa-6">
          <mxGeometry x="645.9375" y="116.57142857142857" width="99.375" height="34.285714285714285" as="geometry" />
        </mxCell>
        <mxCell id="H8qIDflxrQJZFZ6HQlEa-31" value="15" style="strokeWidth=1;shadow=0;dashed=0;align=center;html=1;shape=mxgraph.mockup.forms.rrect;rSize=0;strokeColor=#999999;fontColor=#999999;" vertex="1" parent="H8qIDflxrQJZFZ6HQlEa-6">
          <mxGeometry x="49.6875" y="150.85714285714286" width="99.375" height="34.285714285714285" as="geometry" />
        </mxCell>
        <mxCell id="H8qIDflxrQJZFZ6HQlEa-32" value="16" style="strokeWidth=1;shadow=0;dashed=0;align=center;html=1;shape=mxgraph.mockup.forms.rrect;rSize=0;strokeColor=#999999;fontColor=#999999;" vertex="1" parent="H8qIDflxrQJZFZ6HQlEa-6">
          <mxGeometry x="149.0625" y="150.85714285714286" width="99.375" height="34.285714285714285" as="geometry" />
        </mxCell>
        <mxCell id="H8qIDflxrQJZFZ6HQlEa-33" value="17" style="strokeWidth=1;shadow=0;dashed=0;align=center;html=1;shape=mxgraph.mockup.forms.rrect;rSize=0;strokeColor=#999999;fontColor=#999999;" vertex="1" parent="H8qIDflxrQJZFZ6HQlEa-6">
          <mxGeometry x="248.4375" y="150.85714285714286" width="99.375" height="34.285714285714285" as="geometry" />
        </mxCell>
        <mxCell id="H8qIDflxrQJZFZ6HQlEa-34" value="18" style="strokeWidth=1;shadow=0;dashed=0;align=center;html=1;shape=mxgraph.mockup.forms.rrect;rSize=0;strokeColor=#999999;fontColor=#999999;" vertex="1" parent="H8qIDflxrQJZFZ6HQlEa-6">
          <mxGeometry x="347.8125" y="150.85714285714286" width="99.375" height="34.285714285714285" as="geometry" />
        </mxCell>
        <mxCell id="H8qIDflxrQJZFZ6HQlEa-35" value="19" style="strokeWidth=1;shadow=0;dashed=0;align=center;html=1;shape=mxgraph.mockup.forms.rrect;rSize=0;strokeColor=#999999;fontColor=#999999;" vertex="1" parent="H8qIDflxrQJZFZ6HQlEa-6">
          <mxGeometry x="447.1875" y="150.85714285714286" width="99.375" height="34.285714285714285" as="geometry" />
        </mxCell>
        <mxCell id="H8qIDflxrQJZFZ6HQlEa-36" value="20" style="strokeWidth=1;shadow=0;dashed=0;align=center;html=1;shape=mxgraph.mockup.forms.rrect;rSize=0;strokeColor=#999999;fontColor=#999999;" vertex="1" parent="H8qIDflxrQJZFZ6HQlEa-6">
          <mxGeometry x="546.5625" y="150.85714285714286" width="99.375" height="34.285714285714285" as="geometry" />
        </mxCell>
        <mxCell id="H8qIDflxrQJZFZ6HQlEa-37" value="21" style="strokeWidth=1;shadow=0;dashed=0;align=center;html=1;shape=mxgraph.mockup.forms.rrect;rSize=0;strokeColor=#999999;fontColor=#999999;" vertex="1" parent="H8qIDflxrQJZFZ6HQlEa-6">
          <mxGeometry x="645.9375" y="150.85714285714286" width="99.375" height="34.285714285714285" as="geometry" />
        </mxCell>
        <mxCell id="H8qIDflxrQJZFZ6HQlEa-38" value="22" style="strokeWidth=1;shadow=0;dashed=0;align=center;html=1;shape=mxgraph.mockup.forms.rrect;rSize=0;strokeColor=#999999;fontColor=#999999;" vertex="1" parent="H8qIDflxrQJZFZ6HQlEa-6">
          <mxGeometry x="49.6875" y="185.14285714285714" width="99.375" height="34.285714285714285" as="geometry" />
        </mxCell>
        <mxCell id="H8qIDflxrQJZFZ6HQlEa-39" value="23" style="strokeWidth=1;shadow=0;dashed=0;align=center;html=1;shape=mxgraph.mockup.forms.rrect;rSize=0;strokeColor=#999999;fontColor=#999999;" vertex="1" parent="H8qIDflxrQJZFZ6HQlEa-6">
          <mxGeometry x="149.0625" y="185.14285714285714" width="99.375" height="34.285714285714285" as="geometry" />
        </mxCell>
        <mxCell id="H8qIDflxrQJZFZ6HQlEa-40" value="25" style="strokeWidth=1;shadow=0;dashed=0;align=center;html=1;shape=mxgraph.mockup.forms.rrect;rSize=0;strokeColor=#999999;fontColor=#999999;" vertex="1" parent="H8qIDflxrQJZFZ6HQlEa-6">
          <mxGeometry x="347.8125" y="185.14285714285714" width="99.375" height="34.285714285714285" as="geometry" />
        </mxCell>
        <mxCell id="H8qIDflxrQJZFZ6HQlEa-41" value="26" style="strokeWidth=1;shadow=0;dashed=0;align=center;html=1;shape=mxgraph.mockup.forms.rrect;rSize=0;strokeColor=#999999;fontColor=#999999;" vertex="1" parent="H8qIDflxrQJZFZ6HQlEa-6">
          <mxGeometry x="447.1875" y="185.14285714285714" width="99.375" height="34.285714285714285" as="geometry" />
        </mxCell>
        <mxCell id="H8qIDflxrQJZFZ6HQlEa-42" value="27" style="strokeWidth=1;shadow=0;dashed=0;align=center;html=1;shape=mxgraph.mockup.forms.rrect;rSize=0;strokeColor=#999999;fontColor=#999999;" vertex="1" parent="H8qIDflxrQJZFZ6HQlEa-6">
          <mxGeometry x="546.5625" y="185.14285714285714" width="99.375" height="34.285714285714285" as="geometry" />
        </mxCell>
        <mxCell id="H8qIDflxrQJZFZ6HQlEa-43" value="28" style="strokeWidth=1;shadow=0;dashed=0;align=center;html=1;shape=mxgraph.mockup.forms.rrect;rSize=0;strokeColor=#999999;fontColor=#999999;" vertex="1" parent="H8qIDflxrQJZFZ6HQlEa-6">
          <mxGeometry x="645.9375" y="185.14285714285714" width="99.375" height="34.285714285714285" as="geometry" />
        </mxCell>
        <mxCell id="H8qIDflxrQJZFZ6HQlEa-44" value="29" style="strokeWidth=1;shadow=0;dashed=0;align=center;html=1;shape=mxgraph.mockup.forms.rrect;rSize=0;strokeColor=#999999;fontColor=#999999;" vertex="1" parent="H8qIDflxrQJZFZ6HQlEa-6">
          <mxGeometry x="49.6875" y="219.42857142857142" width="99.375" height="34.285714285714285" as="geometry" />
        </mxCell>
        <mxCell id="H8qIDflxrQJZFZ6HQlEa-45" value="30" style="strokeWidth=1;shadow=0;dashed=0;align=center;html=1;shape=mxgraph.mockup.forms.rrect;rSize=0;strokeColor=#999999;fontColor=#999999;" vertex="1" parent="H8qIDflxrQJZFZ6HQlEa-6">
          <mxGeometry x="149.0625" y="219.42857142857142" width="99.375" height="34.285714285714285" as="geometry" />
        </mxCell>
        <mxCell id="H8qIDflxrQJZFZ6HQlEa-46" value="31" style="strokeWidth=1;shadow=0;dashed=0;align=center;html=1;shape=mxgraph.mockup.forms.rrect;rSize=0;strokeColor=#999999;fontColor=#999999;" vertex="1" parent="H8qIDflxrQJZFZ6HQlEa-6">
          <mxGeometry x="248.4375" y="219.42857142857142" width="99.375" height="34.285714285714285" as="geometry" />
        </mxCell>
        <mxCell id="H8qIDflxrQJZFZ6HQlEa-47" value="1" style="strokeWidth=1;shadow=0;dashed=0;align=center;html=1;shape=mxgraph.mockup.forms.rrect;rSize=0;strokeColor=#999999;fontColor=#999999;fillColor=#ddeeff;" vertex="1" parent="H8qIDflxrQJZFZ6HQlEa-6">
          <mxGeometry x="347.8125" y="219.42857142857142" width="99.375" height="34.285714285714285" as="geometry" />
        </mxCell>
        <mxCell id="H8qIDflxrQJZFZ6HQlEa-48" value="2" style="strokeWidth=1;shadow=0;dashed=0;align=center;html=1;shape=mxgraph.mockup.forms.rrect;rSize=0;strokeColor=#999999;fontColor=#999999;fillColor=#ddeeff;" vertex="1" parent="H8qIDflxrQJZFZ6HQlEa-6">
          <mxGeometry x="447.1875" y="219.42857142857142" width="99.375" height="34.285714285714285" as="geometry" />
        </mxCell>
        <mxCell id="H8qIDflxrQJZFZ6HQlEa-49" value="3" style="strokeWidth=1;shadow=0;dashed=0;align=center;html=1;shape=mxgraph.mockup.forms.rrect;rSize=0;strokeColor=#999999;fontColor=#999999;fillColor=#ddeeff;" vertex="1" parent="H8qIDflxrQJZFZ6HQlEa-6">
          <mxGeometry x="546.5625" y="219.42857142857142" width="99.375" height="34.285714285714285" as="geometry" />
        </mxCell>
        <mxCell id="H8qIDflxrQJZFZ6HQlEa-50" value="4" style="strokeWidth=1;shadow=0;dashed=0;align=center;html=1;shape=mxgraph.mockup.forms.rrect;rSize=0;strokeColor=#999999;fontColor=#999999;fillColor=#ddeeff;" vertex="1" parent="H8qIDflxrQJZFZ6HQlEa-6">
          <mxGeometry x="645.9375" y="219.42857142857142" width="99.375" height="34.285714285714285" as="geometry" />
        </mxCell>
        <mxCell id="H8qIDflxrQJZFZ6HQlEa-51" value="5" style="strokeWidth=1;shadow=0;dashed=0;align=center;html=1;shape=mxgraph.mockup.forms.rrect;rSize=0;strokeColor=#999999;fontColor=#999999;fillColor=#ddeeff;" vertex="1" parent="H8qIDflxrQJZFZ6HQlEa-6">
          <mxGeometry x="49.6875" y="253.71428571428572" width="99.375" height="34.285714285714285" as="geometry" />
        </mxCell>
        <mxCell id="H8qIDflxrQJZFZ6HQlEa-52" value="6" style="strokeWidth=1;shadow=0;dashed=0;align=center;html=1;shape=mxgraph.mockup.forms.rrect;rSize=0;strokeColor=#999999;fontColor=#999999;fillColor=#ddeeff;" vertex="1" parent="H8qIDflxrQJZFZ6HQlEa-6">
          <mxGeometry x="149.0625" y="253.71428571428572" width="99.375" height="34.285714285714285" as="geometry" />
        </mxCell>
        <mxCell id="H8qIDflxrQJZFZ6HQlEa-53" value="7" style="strokeWidth=1;shadow=0;dashed=0;align=center;html=1;shape=mxgraph.mockup.forms.rrect;rSize=0;strokeColor=#999999;fontColor=#999999;fillColor=#ddeeff;" vertex="1" parent="H8qIDflxrQJZFZ6HQlEa-6">
          <mxGeometry x="248.4375" y="253.71428571428572" width="99.375" height="34.285714285714285" as="geometry" />
        </mxCell>
        <mxCell id="H8qIDflxrQJZFZ6HQlEa-54" value="8" style="strokeWidth=1;shadow=0;dashed=0;align=center;html=1;shape=mxgraph.mockup.forms.rrect;rSize=0;strokeColor=#999999;fontColor=#999999;fillColor=#ddeeff;" vertex="1" parent="H8qIDflxrQJZFZ6HQlEa-6">
          <mxGeometry x="347.8125" y="253.71428571428572" width="99.375" height="34.285714285714285" as="geometry" />
        </mxCell>
        <mxCell id="H8qIDflxrQJZFZ6HQlEa-55" value="9" style="strokeWidth=1;shadow=0;dashed=0;align=center;html=1;shape=mxgraph.mockup.forms.rrect;rSize=0;strokeColor=#999999;fontColor=#999999;fillColor=#ddeeff;" vertex="1" parent="H8qIDflxrQJZFZ6HQlEa-6">
          <mxGeometry x="447.1875" y="253.71428571428572" width="99.375" height="34.285714285714285" as="geometry" />
        </mxCell>
        <mxCell id="H8qIDflxrQJZFZ6HQlEa-56" value="10" style="strokeWidth=1;shadow=0;dashed=0;align=center;html=1;shape=mxgraph.mockup.forms.rrect;rSize=0;strokeColor=#999999;fontColor=#999999;fillColor=#ddeeff;" vertex="1" parent="H8qIDflxrQJZFZ6HQlEa-6">
          <mxGeometry x="546.5625" y="253.71428571428572" width="99.375" height="34.285714285714285" as="geometry" />
        </mxCell>
        <mxCell id="H8qIDflxrQJZFZ6HQlEa-57" value="11" style="strokeWidth=1;shadow=0;dashed=0;align=center;html=1;shape=mxgraph.mockup.forms.rrect;rSize=0;strokeColor=#999999;fontColor=#999999;fillColor=#ddeeff;" vertex="1" parent="H8qIDflxrQJZFZ6HQlEa-6">
          <mxGeometry x="645.9375" y="253.71428571428572" width="99.375" height="34.285714285714285" as="geometry" />
        </mxCell>
        <mxCell id="H8qIDflxrQJZFZ6HQlEa-58" value="24" style="strokeWidth=1;shadow=0;dashed=0;align=center;html=1;shape=mxgraph.mockup.forms.rrect;rSize=0;strokeColor=#ff0000;fontColor=#ffffff;strokeWidth=2;fillColor=#008cff;" vertex="1" parent="H8qIDflxrQJZFZ6HQlEa-6">
          <mxGeometry x="248.4375" y="185.14285714285714" width="99.375" height="34.285714285714285" as="geometry" />
        </mxCell>
        <mxCell id="H8qIDflxrQJZFZ6HQlEa-59" value="Show times to meet after:" style="fillColor=none;strokeColor=none;html=1;fontSize=11;fontStyle=0;align=left;fontColor=#596780;fontStyle=1;fontSize=11" vertex="1" parent="7026571954dc6520-1">
          <mxGeometry x="15" y="360" width="240" height="20" as="geometry" />
        </mxCell>
        <mxCell id="H8qIDflxrQJZFZ6HQlEa-60" value="" style="rounded=1;arcSize=9;fillColor=#F7F8F9;align=left;spacingLeft=5;strokeColor=#DEE1E6;html=1;strokeWidth=2;fontColor=#596780;fontSize=12" vertex="1" parent="7026571954dc6520-1">
          <mxGeometry x="10" y="390" width="250" height="40" as="geometry" />
        </mxCell>
        <mxCell id="H8qIDflxrQJZFZ6HQlEa-61" value="" style="html=1;verticalLabelPosition=bottom;align=center;labelBackgroundColor=#ffffff;verticalAlign=top;strokeWidth=2;strokeColor=#0080F0;shadow=0;dashed=0;shape=mxgraph.ios7.icons.clock;" vertex="1" parent="7026571954dc6520-1">
          <mxGeometry x="20" y="315" width="30" height="30" as="geometry" />
        </mxCell>
        <mxCell id="H8qIDflxrQJZFZ6HQlEa-62" value="" style="html=1;verticalLabelPosition=bottom;align=center;labelBackgroundColor=#ffffff;verticalAlign=top;strokeWidth=2;strokeColor=#0080F0;shadow=0;dashed=0;shape=mxgraph.ios7.icons.clock;" vertex="1" parent="7026571954dc6520-1">
          <mxGeometry x="15" y="395" width="30" height="30" as="geometry" />
        </mxCell>
        <mxCell id="H8qIDflxrQJZFZ6HQlEa-64" value="&lt;font style=&quot;font-size: 24px;&quot;&gt;F7JV&lt;/font&gt;" style="rounded=1;arcSize=9;fillColor=#F7F8F9;align=left;spacingLeft=5;strokeColor=#DEE1E6;html=1;strokeWidth=2;fontColor=#596780;fontSize=12" vertex="1" parent="7026571954dc6520-1">
          <mxGeometry x="30" y="490" width="115" height="40" as="geometry" />
        </mxCell>
        <mxCell id="H8qIDflxrQJZFZ6HQlEa-65" value="Unique code of other students:" style="fillColor=none;strokeColor=none;html=1;fontSize=11;fontStyle=0;align=left;fontColor=#596780;fontStyle=1;fontSize=11" vertex="1" parent="7026571954dc6520-1">
          <mxGeometry x="15" y="450" width="240" height="20" as="geometry" />
        </mxCell>
        <mxCell id="H8qIDflxrQJZFZ6HQlEa-142" value="&lt;span style=&quot;font-size: 24px;&quot;&gt;G3A4&lt;/span&gt;" style="rounded=1;arcSize=9;fillColor=#F7F8F9;align=left;spacingLeft=5;strokeColor=#DEE1E6;html=1;strokeWidth=2;fontColor=#596780;fontSize=12" vertex="1" parent="7026571954dc6520-1">
          <mxGeometry x="30" y="550" width="115" height="40" as="geometry" />
        </mxCell>
        <mxCell id="H8qIDflxrQJZFZ6HQlEa-143" value="Add Student" style="strokeWidth=1;shadow=0;dashed=0;align=center;html=1;shape=mxgraph.mockup.buttons.button;strokeColor=#666666;mainText=;buttonStyle=round;fontSize=17;fontStyle=0;fillColor=none;whiteSpace=wrap;rounded=0;labelBackgroundColor=none;" vertex="1" parent="7026571954dc6520-1">
          <mxGeometry x="30" y="610" width="100" height="30" as="geometry" />
        </mxCell>
        <mxCell id="H8qIDflxrQJZFZ6HQlEa-147" value="" style="shape=image;html=1;verticalAlign=top;verticalLabelPosition=bottom;labelBackgroundColor=#ffffff;imageAspect=0;aspect=fixed;image=https://cdn0.iconfinder.com/data/icons/ie_ICandies/64/button_45.png" vertex="1" parent="7026571954dc6520-1">
          <mxGeometry x="30" y="670.5" width="64" height="64" as="geometry" />
        </mxCell>
        <mxCell id="H8qIDflxrQJZFZ6HQlEa-152" value="Add selected to my calendar" style="labelPosition=center;verticalLabelPosition=middle;align=center;html=1;shape=mxgraph.basic.shaded_button;dx=10;fillColor=#E6E6E6;strokeColor=none;whiteSpace=wrap;" vertex="1" parent="7026571954dc6520-1">
          <mxGeometry x="670" y="660" width="140" height="85" as="geometry" />
        </mxCell>
        <mxCell id="H8qIDflxrQJZFZ6HQlEa-180" value="" style="strokeWidth=1;shadow=0;dashed=0;align=center;html=1;shape=mxgraph.mockup.forms.rrect;rSize=0;strokeColor=#999999;fillColor=#ffffff;recursiveResize=0;" vertex="1" parent="7026571954dc6520-1">
          <mxGeometry x="270" y="642.5" width="380" height="120" as="geometry" />
        </mxCell>
        <mxCell id="H8qIDflxrQJZFZ6HQlEa-181" value="Thursday, 07 September 2023 14:49:49 AES" style="strokeWidth=1;shadow=0;dashed=0;align=center;html=1;shape=mxgraph.mockup.forms.rrect;rSize=0;fillColor=#eeeeee;strokeColor=#999999;gradientColor=#cccccc;align=left;spacingLeft=4;fontSize=17;fontColor=#666666;labelPosition=right;" vertex="1" parent="H8qIDflxrQJZFZ6HQlEa-180">
          <mxGeometry x="8" y="7.5" width="15" height="15" as="geometry" />
        </mxCell>
        <mxCell id="H8qIDflxrQJZFZ6HQlEa-182" value="Thursday, 07 September 2023 14:49:49 AES" style="strokeWidth=1;shadow=0;dashed=0;align=center;html=1;shape=mxgraph.mockup.forms.rrect;rSize=0;fillColor=#eeeeee;strokeColor=#999999;gradientColor=#cccccc;align=left;spacingLeft=4;fontSize=17;fontColor=#666666;labelPosition=right;" vertex="1" parent="H8qIDflxrQJZFZ6HQlEa-180">
          <mxGeometry x="8" y="37.5" width="15" height="15" as="geometry" />
        </mxCell>
        <mxCell id="H8qIDflxrQJZFZ6HQlEa-183" value="Thursday, 07 September 2023 14:49:49 AES" style="strokeWidth=1;shadow=0;dashed=0;align=center;html=1;shape=mxgraph.mockup.forms.checkbox;rSize=0;resizable=0;fillColor=#aaaaaa;strokeColor=#444444;gradientColor=#666666;align=left;spacingLeft=4;fontSize=17;fontColor=#008cff;labelPosition=right;" vertex="1" parent="H8qIDflxrQJZFZ6HQlEa-180">
          <mxGeometry x="8" y="67.5" width="15" height="15" as="geometry" />
        </mxCell>
        <mxCell id="H8qIDflxrQJZFZ6HQlEa-184" value="Thursday, 07 September 2023 14:49:49 AES" style="strokeWidth=1;shadow=0;dashed=0;align=center;html=1;shape=mxgraph.mockup.forms.rrect;rSize=0;fillColor=#eeeeee;strokeColor=#999999;gradientColor=#cccccc;align=left;spacingLeft=4;fontSize=17;fontColor=#666666;labelPosition=right;" vertex="1" parent="H8qIDflxrQJZFZ6HQlEa-180">
          <mxGeometry x="8" y="97.5" width="15" height="15" as="geometry" />
        </mxCell>
        <mxCell id="H8qIDflxrQJZFZ6HQlEa-185" value="Share with friends" style="fillColor=none;strokeColor=none;html=1;fontSize=11;fontStyle=0;align=left;fontColor=#596780;fontStyle=1;fontSize=11" vertex="1" parent="7026571954dc6520-1">
          <mxGeometry x="840" y="682" width="240" height="20" as="geometry" />
        </mxCell>
        <mxCell id="H8qIDflxrQJZFZ6HQlEa-186" value="https://ADDTOGOOGLECALENDAR.com" style="rounded=1;arcSize=9;fillColor=#F7F8F9;align=left;spacingLeft=5;strokeColor=#DEE1E6;html=1;strokeWidth=2;fontSize=12" vertex="1" parent="7026571954dc6520-1">
          <mxGeometry x="840" y="702" width="290" height="38" as="geometry" />
        </mxCell>
        <mxCell id="H8qIDflxrQJZFZ6HQlEa-187" value="Copy" style="strokeWidth=1;html=1;shadow=0;dashed=0;shape=mxgraph.ios.iCopy;fillColor=#000000;buttonText=;fontColor=#ffffff;spacingBottom=6;fontSize=9;fillColor2=#000000;fillColor3=#ffffff;align=center;sketch=0;whiteSpace=wrap;" vertex="1" parent="7026571954dc6520-1">
          <mxGeometry x="1080" y="710" width="40" height="27.500000000000004" as="geometry" />
        </mxCell>
      </root>
    </mxGraphModel>
  </diagram>
</mxfile>
